<svg width="1166" height="310" viewBox="0 0 1166 310" fill="none" xmlns="http://www.w3.org/2000/svg">
<g clip-path="url(#clip0)">
<path d="M239 0.500007L160 76C160.333 133.333 160.9 248.4 160.5 250C160.1 251.6 161.667 252.333 162.5 252.5H242.5C268.167 228.167 320 178.9 322 176.5C324 174.1 322.5 172.833 321.5 172.5H242.5C242.333 117 242.1 5.40001 242.5 3.00001C242.9 0.600007 240.333 0.33334 239 0.500007Z" fill="white"/>
<path d="M79 0.0400152L0 75.54C0.333333 132.873 0.9 247.94 0.5 249.54C0.1 251.14 1.66667 251.873 2.5 252.04H82.5C108.167 227.707 160 178.44 162 176.04C164 173.64 162.5 172.373 161.5 172.04H82.5C82.3333 116.54 82.1 4.94002 82.5 2.54002C82.9 0.140015 80.3333 -0.126651 79 0.0400152Z" fill="white"/>
<path d="M423.28 117.44C411.28 117.44 401.92 114.12 395.2 107.48C388.56 100.84 385.24 91.36 385.24 79.04V32H404.68V78.32C404.68 93.36 410.92 100.88 423.4 100.88C429.48 100.88 434.12 99.08 437.32 95.48C440.52 91.8 442.12 86.08 442.12 78.32V32H461.32V79.04C461.32 91.36 457.96 100.84 451.24 107.48C444.6 114.12 435.28 117.44 423.28 117.44ZM518.45 50.48C526.45 50.48 532.89 52.88 537.77 57.68C542.73 62.48 545.21 69.6 545.21 79.04V116H526.49V81.92C526.49 76.8 525.37 73 523.13 70.52C520.89 67.96 517.65 66.68 513.41 66.68C508.69 66.68 504.93 68.16 502.13 71.12C499.33 74 497.93 78.32 497.93 84.08V116H479.21V51.44H497.09V59C499.57 56.28 502.65 54.2 506.33 52.76C510.01 51.24 514.05 50.48 518.45 50.48ZM562.179 51.44H580.899V116H562.179V51.44ZM571.539 42.44C568.099 42.44 565.299 41.44 563.139 39.44C560.979 37.44 559.899 34.96 559.899 32C559.899 29.04 560.979 26.56 563.139 24.56C565.299 22.56 568.099 21.56 571.539 21.56C574.979 21.56 577.779 22.52 579.939 24.44C582.099 26.36 583.179 28.76 583.179 31.64C583.179 34.76 582.099 37.36 579.939 39.44C577.779 41.44 574.979 42.44 571.539 42.44ZM662.353 51.44L635.113 116H615.793L588.673 51.44H607.993L625.873 95.36L644.353 51.44H662.353ZM731.474 83.96C731.474 84.2 731.354 85.88 731.114 89H682.274C683.154 93 685.234 96.16 688.514 98.48C691.794 100.8 695.874 101.96 700.754 101.96C704.114 101.96 707.074 101.48 709.634 100.52C712.274 99.48 714.714 97.88 716.954 95.72L726.914 106.52C720.834 113.48 711.954 116.96 700.274 116.96C692.994 116.96 686.554 115.56 680.954 112.76C675.354 109.88 671.034 105.92 667.994 100.88C664.954 95.84 663.434 90.12 663.434 83.72C663.434 77.4 664.914 71.72 667.874 66.68C670.914 61.56 675.034 57.6 680.234 54.8C685.514 51.92 691.394 50.48 697.874 50.48C704.194 50.48 709.914 51.84 715.034 54.56C720.154 57.28 724.154 61.2 727.034 66.32C729.994 71.36 731.474 77.24 731.474 83.96ZM697.994 64.64C693.754 64.64 690.194 65.84 687.314 68.24C684.434 70.64 682.674 73.92 682.034 78.08H713.834C713.194 74 711.434 70.76 708.554 68.36C705.674 65.88 702.154 64.64 697.994 64.64ZM761.817 59.96C764.057 56.84 767.057 54.48 770.817 52.88C774.657 51.28 779.057 50.48 784.017 50.48V67.76C781.937 67.6 780.537 67.52 779.817 67.52C774.457 67.52 770.257 69.04 767.217 72.08C764.177 75.04 762.657 79.52 762.657 85.52V116H743.937V51.44H761.817V59.96ZM817.102 116.96C811.742 116.96 806.502 116.32 801.382 115.04C796.262 113.68 792.182 112 789.142 110L795.382 96.56C798.262 98.4 801.742 99.92 805.822 101.12C809.902 102.24 813.902 102.8 817.822 102.8C825.742 102.8 829.702 100.84 829.702 96.92C829.702 95.08 828.622 93.76 826.462 92.96C824.302 92.16 820.982 91.48 816.502 90.92C811.222 90.12 806.862 89.2 803.422 88.16C799.982 87.12 796.982 85.28 794.422 82.64C791.942 80 790.702 76.24 790.702 71.36C790.702 67.28 791.862 63.68 794.182 60.56C796.582 57.36 800.022 54.88 804.502 53.12C809.062 51.36 814.422 50.48 820.582 50.48C825.142 50.48 829.662 51 834.142 52.04C838.702 53 842.462 54.36 845.422 56.12L839.182 69.44C833.502 66.24 827.302 64.64 820.582 64.64C816.582 64.64 813.582 65.2 811.582 66.32C809.582 67.44 808.582 68.88 808.582 70.64C808.582 72.64 809.662 74.04 811.822 74.84C813.982 75.64 817.422 76.4 822.142 77.12C827.422 78 831.742 78.96 835.102 80C838.462 80.96 841.382 82.76 843.862 85.4C846.342 88.04 847.582 91.72 847.582 96.44C847.582 100.44 846.382 104 843.982 107.12C841.582 110.24 838.062 112.68 833.422 114.44C828.862 116.12 823.422 116.96 817.102 116.96ZM859.132 51.44H877.852V116H859.132V51.44ZM868.492 42.44C865.052 42.44 862.252 41.44 860.092 39.44C857.932 37.44 856.852 34.96 856.852 32C856.852 29.04 857.932 26.56 860.092 24.56C862.252 22.56 865.052 21.56 868.492 21.56C871.932 21.56 874.732 22.52 876.892 24.44C879.052 26.36 880.132 28.76 880.132 31.64C880.132 34.76 879.052 37.36 876.892 39.44C874.732 41.44 871.932 42.44 868.492 42.44ZM960.986 26.96V116H943.106V108.56C938.466 114.16 931.746 116.96 922.946 116.96C916.866 116.96 911.346 115.6 906.386 112.88C901.506 110.16 897.666 106.28 894.866 101.24C892.066 96.2 890.666 90.36 890.666 83.72C890.666 77.08 892.066 71.24 894.866 66.2C897.666 61.16 901.506 57.28 906.386 54.56C911.346 51.84 916.866 50.48 922.946 50.48C931.186 50.48 937.626 53.08 942.266 58.28V26.96H960.986ZM926.186 101.6C930.906 101.6 934.826 100 937.946 96.8C941.066 93.52 942.626 89.16 942.626 83.72C942.626 78.28 941.066 73.96 937.946 70.76C934.826 67.48 930.906 65.84 926.186 65.84C921.386 65.84 917.426 67.48 914.306 70.76C911.186 73.96 909.626 78.28 909.626 83.72C909.626 89.16 911.186 93.52 914.306 96.8C917.426 100 921.386 101.6 926.186 101.6ZM1004.35 50.48C1014.35 50.48 1022.03 52.88 1027.39 57.68C1032.75 62.4 1035.43 69.56 1035.43 79.16V116H1017.91V107.96C1014.39 113.96 1007.83 116.96 998.232 116.96C993.272 116.96 988.952 116.12 985.272 114.44C981.672 112.76 978.912 110.44 976.992 107.48C975.072 104.52 974.112 101.16 974.112 97.4C974.112 91.4 976.352 86.68 980.832 83.24C985.392 79.8 992.392 78.08 1001.83 78.08H1016.71C1016.71 74 1015.47 70.88 1012.99 68.72C1010.51 66.48 1006.79 65.36 1001.83 65.36C998.392 65.36 994.992 65.92 991.632 67.04C988.352 68.08 985.552 69.52 983.232 71.36L976.512 58.28C980.032 55.8 984.232 53.88 989.112 52.52C994.072 51.16 999.152 50.48 1004.35 50.48ZM1002.91 104.36C1006.11 104.36 1008.95 103.64 1011.43 102.2C1013.91 100.68 1015.67 98.48 1016.71 95.6V89H1003.87C996.192 89 992.352 91.52 992.352 96.56C992.352 98.96 993.272 100.88 995.112 102.32C997.032 103.68 999.632 104.36 1002.91 104.36ZM1118.84 26.96V116H1100.96V108.56C1096.32 114.16 1089.6 116.96 1080.8 116.96C1074.72 116.96 1069.2 115.6 1064.24 112.88C1059.36 110.16 1055.52 106.28 1052.72 101.24C1049.92 96.2 1048.52 90.36 1048.52 83.72C1048.52 77.08 1049.92 71.24 1052.72 66.2C1055.52 61.16 1059.36 57.28 1064.24 54.56C1069.2 51.84 1074.72 50.48 1080.8 50.48C1089.04 50.48 1095.48 53.08 1100.12 58.28V26.96H1118.84ZM1084.04 101.6C1088.76 101.6 1092.68 100 1095.8 96.8C1098.92 93.52 1100.48 89.16 1100.48 83.72C1100.48 78.28 1098.92 73.96 1095.8 70.76C1092.68 67.48 1088.76 65.84 1084.04 65.84C1079.24 65.84 1075.28 67.48 1072.16 70.76C1069.04 73.96 1067.48 78.28 1067.48 83.72C1067.48 89.16 1069.04 93.52 1072.16 96.8C1075.28 100 1079.24 101.6 1084.04 101.6Z" fill="white"/>
<path d="M441.01 170.38V252H430.89V242.76C428.543 245.987 425.573 248.443 421.98 250.13C418.387 251.817 414.427 252.66 410.1 252.66C404.453 252.66 399.393 251.413 394.92 248.92C390.447 246.427 386.927 242.943 384.36 238.47C381.867 233.923 380.62 228.717 380.62 222.85C380.62 216.983 381.867 211.813 384.36 207.34C386.927 202.867 390.447 199.383 394.92 196.89C399.393 194.397 404.453 193.15 410.1 193.15C414.28 193.15 418.13 193.957 421.65 195.57C425.17 197.11 428.103 199.42 430.45 202.5V170.38H441.01ZM410.98 243.42C414.647 243.42 417.983 242.577 420.99 240.89C423.997 239.13 426.343 236.71 428.03 233.63C429.717 230.477 430.56 226.883 430.56 222.85C430.56 218.817 429.717 215.26 428.03 212.18C426.343 209.027 423.997 206.607 420.99 204.92C417.983 203.233 414.647 202.39 410.98 202.39C407.24 202.39 403.867 203.233 400.86 204.92C397.927 206.607 395.58 209.027 393.82 212.18C392.133 215.26 391.29 218.817 391.29 222.85C391.29 226.883 392.133 230.477 393.82 233.63C395.58 236.71 397.927 239.13 400.86 240.89C403.867 242.577 407.24 243.42 410.98 243.42ZM513.68 223.18C513.68 223.987 513.607 225.05 513.46 226.37H466.16C466.82 231.503 469.057 235.647 472.87 238.8C476.757 241.88 481.56 243.42 487.28 243.42C494.247 243.42 499.857 241.073 504.11 236.38L509.94 243.2C507.3 246.28 504 248.627 500.04 250.24C496.154 251.853 491.79 252.66 486.95 252.66C480.79 252.66 475.327 251.413 470.56 248.92C465.794 246.353 462.09 242.797 459.45 238.25C456.884 233.703 455.6 228.57 455.6 222.85C455.6 217.203 456.847 212.107 459.34 207.56C461.907 203.013 465.39 199.493 469.79 197C474.264 194.433 479.287 193.15 484.86 193.15C490.434 193.15 495.384 194.433 499.71 197C504.11 199.493 507.52 203.013 509.94 207.56C512.434 212.107 513.68 217.313 513.68 223.18ZM484.86 202.06C479.8 202.06 475.547 203.6 472.1 206.68C468.727 209.76 466.747 213.793 466.16 218.78H503.56C502.974 213.867 500.957 209.87 497.51 206.79C494.137 203.637 489.92 202.06 484.86 202.06ZM559.425 175H570.425V242.43H612.115V252H559.425V175ZM644.75 193.15C652.816 193.15 658.976 195.13 663.23 199.09C667.556 203.05 669.72 208.953 669.72 216.8V252H659.71V244.3C657.95 247.013 655.42 249.103 652.12 250.57C648.893 251.963 645.043 252.66 640.57 252.66C634.043 252.66 628.8 251.083 624.84 247.93C620.953 244.777 619.01 240.633 619.01 235.5C619.01 230.367 620.88 226.26 624.62 223.18C628.36 220.027 634.3 218.45 642.44 218.45H659.16V216.36C659.16 211.813 657.84 208.33 655.2 205.91C652.56 203.49 648.673 202.28 643.54 202.28C640.093 202.28 636.72 202.867 633.42 204.04C630.12 205.14 627.333 206.643 625.06 208.55L620.66 200.63C623.666 198.21 627.26 196.377 631.44 195.13C635.62 193.81 640.056 193.15 644.75 193.15ZM642.33 244.52C646.363 244.52 649.846 243.64 652.78 241.88C655.713 240.047 657.84 237.48 659.16 234.18V226.04H642.88C633.933 226.04 629.46 229.047 629.46 235.06C629.46 237.993 630.596 240.303 632.87 241.99C635.143 243.677 638.296 244.52 642.33 244.52ZM720.343 175H731.343V242.43H773.033V252H720.343V175ZM805.668 193.15C813.734 193.15 819.894 195.13 824.148 199.09C828.474 203.05 830.638 208.953 830.638 216.8V252H820.628V244.3C818.868 247.013 816.338 249.103 813.038 250.57C809.811 251.963 805.961 252.66 801.488 252.66C794.961 252.66 789.718 251.083 785.758 247.93C781.871 244.777 779.928 240.633 779.928 235.5C779.928 230.367 781.798 226.26 785.538 223.18C789.278 220.027 795.218 218.45 803.358 218.45H820.078V216.36C820.078 211.813 818.758 208.33 816.118 205.91C813.478 203.49 809.591 202.28 804.458 202.28C801.011 202.28 797.638 202.867 794.338 204.04C791.038 205.14 788.251 206.643 785.978 208.55L781.578 200.63C784.584 198.21 788.178 196.377 792.358 195.13C796.538 193.81 800.974 193.15 805.668 193.15ZM803.248 244.52C807.281 244.52 810.764 243.64 813.698 241.88C816.631 240.047 818.758 237.48 820.078 234.18V226.04H803.798C794.851 226.04 790.378 229.047 790.378 235.06C790.378 237.993 791.514 240.303 793.788 241.99C796.061 243.677 799.214 244.52 803.248 244.52ZM906.272 193.7V244.08C906.272 254.273 903.742 261.79 898.682 266.63C893.622 271.543 886.069 274 876.022 274C870.522 274 865.279 273.23 860.292 271.69C855.306 270.223 851.272 268.097 848.192 265.31L853.252 257.17C855.966 259.517 859.302 261.35 863.262 262.67C867.296 264.063 871.439 264.76 875.692 264.76C882.512 264.76 887.536 263.147 890.762 259.92C894.062 256.693 895.712 251.78 895.712 245.18V240.56C893.219 243.567 890.139 245.84 886.472 247.38C882.879 248.847 878.956 249.58 874.702 249.58C869.129 249.58 864.069 248.407 859.522 246.06C855.049 243.64 851.529 240.303 848.962 236.05C846.396 231.723 845.112 226.81 845.112 221.31C845.112 215.81 846.396 210.933 848.962 206.68C851.529 202.353 855.049 199.017 859.522 196.67C864.069 194.323 869.129 193.15 874.702 193.15C879.102 193.15 883.172 193.957 886.912 195.57C890.726 197.183 893.842 199.567 896.262 202.72V193.7H906.272ZM875.912 240.34C879.726 240.34 883.136 239.533 886.142 237.92C889.222 236.307 891.606 234.07 893.292 231.21C895.052 228.277 895.932 224.977 895.932 221.31C895.932 215.663 894.062 211.117 890.322 207.67C886.582 204.15 881.779 202.39 875.912 202.39C869.972 202.39 865.132 204.15 861.392 207.67C857.652 211.117 855.782 215.663 855.782 221.31C855.782 224.977 856.626 228.277 858.312 231.21C860.072 234.07 862.456 236.307 865.462 237.92C868.542 239.533 872.026 240.34 875.912 240.34ZM980.789 193.7V252H970.779V243.2C968.653 246.207 965.829 248.553 962.309 250.24C958.863 251.853 955.086 252.66 950.979 252.66C943.206 252.66 937.083 250.533 932.609 246.28C928.136 241.953 925.899 235.61 925.899 227.25V193.7H936.459V226.04C936.459 231.687 937.816 235.977 940.529 238.91C943.243 241.77 947.129 243.2 952.189 243.2C957.763 243.2 962.163 241.513 965.389 238.14C968.616 234.767 970.229 230 970.229 223.84V193.7H980.789ZM1032.02 193.15C1039.43 193.15 1045.3 195.313 1049.62 199.64C1054.02 203.893 1056.22 210.163 1056.22 218.45V252H1045.66V219.66C1045.66 214.013 1044.31 209.76 1041.59 206.9C1038.88 204.04 1034.99 202.61 1029.93 202.61C1024.21 202.61 1019.7 204.297 1016.4 207.67C1013.1 210.97 1011.45 215.737 1011.45 221.97V252H1000.89V193.7H1011.01V202.5C1013.14 199.493 1016 197.183 1019.59 195.57C1023.26 193.957 1027.4 193.15 1032.02 193.15ZM1097 193.15C1105.06 193.15 1111.22 195.13 1115.48 199.09C1119.8 203.05 1121.97 208.953 1121.97 216.8V252H1111.96V244.3C1110.2 247.013 1107.67 249.103 1104.37 250.57C1101.14 251.963 1097.29 252.66 1092.82 252.66C1086.29 252.66 1081.05 251.083 1077.09 247.93C1073.2 244.777 1071.26 240.633 1071.26 235.5C1071.26 230.367 1073.13 226.26 1076.87 223.18C1080.61 220.027 1086.55 218.45 1094.69 218.45H1111.41V216.36C1111.41 211.813 1110.09 208.33 1107.45 205.91C1104.81 203.49 1100.92 202.28 1095.79 202.28C1092.34 202.28 1088.97 202.867 1085.67 204.04C1082.37 205.14 1079.58 206.643 1077.31 208.55L1072.91 200.63C1075.91 198.21 1079.51 196.377 1083.69 195.13C1087.87 193.81 1092.3 193.15 1097 193.15ZM1094.58 244.52C1098.61 244.52 1102.09 243.64 1105.03 241.88C1107.96 240.047 1110.09 237.48 1111.41 234.18V226.04H1095.13C1086.18 226.04 1081.71 229.047 1081.71 235.06C1081.71 237.993 1082.84 240.303 1085.12 241.99C1087.39 243.677 1090.54 244.52 1094.58 244.52Z" fill="white"/>
</g>
<defs>
<clipPath id="clip0">
<rect width="1166" height="310" fill="white"/>
</clipPath>
</defs>
</svg>
