<svg width="323" height="253" viewBox="0 0 323 253" fill="none" xmlns="http://www.w3.org/2000/svg">
<g clip-path="url(#clip0)">
<path d="M239 0.500007L160 76C160.333 133.333 160.9 248.4 160.5 250C160.1 251.6 161.667 252.333 162.5 252.5H242.5C268.167 228.167 320 178.9 322 176.5C324 174.1 322.5 172.833 321.5 172.5H242.5C242.333 117 242.1 5.40001 242.5 3.00001C242.9 0.600007 240.333 0.33334 239 0.500007Z" fill="white"/>
<path d="M79 0.0400152L0 75.54C0.333333 132.873 0.9 247.94 0.5 249.54C0.1 251.14 1.66667 251.873 2.5 252.04H82.5C108.167 227.707 160 178.44 162 176.04C164 173.64 162.5 172.373 161.5 172.04H82.5C82.3333 116.54 82.1 4.94002 82.5 2.54002C82.9 0.140015 80.3333 -0.126651 79 0.0400152Z" fill="white"/>
</g>
<defs>
<clipPath id="clip0">
<rect width="323" height="253" fill="white"/>
</clipPath>
</defs>
</svg>
